<svg xmlns="http://www.w3.org/2000/svg" width="512px" height="512px" viewBox="0 0 512 512">
	<style>
		path:last-of-type {
			fill: #006FEE;
		}
		@media ( prefers-color-scheme: dark ) {
			path:first-of-type {
				fill: #FFF;
			}
			path:last-of-type {
				fill: #FFBF00;
			}
		}
	</style>
    <path d="M270.157,165.725l67.877,68.494c14.677,14.677,22.013,27.206,22.013,37.61c0,10.393-7.335,22.832-22.013,37.293c-14.674,14.482-27.113,21.713-37.302,21.713c-10.192,0-22.624-7.337-37.301-22.013l-67.276-67.876l-67.876,67.876c-14.679,14.676-27.006,22.013-36.994,22.013c-9.99,0-22.421-7.23-37.301-21.713c-14.883-14.461-22.323-26.9-22.323-37.293c0-10.404,7.343-22.934,22.014-37.61l67.876-68.494l-67.876-68.49c-14.67-14.68-22.014-27.208-22.014-37.61c0-10.395,7.44-22.931,22.323-37.61C68.864,7.343,81.295,0,91.285,0c9.987,0,22.314,7.343,36.994,22.014l67.876,68.492l67.276-68.492C278.108,7.343,290.54,0,300.732,0c10.189,0,22.628,7.343,37.302,22.014c14.677,14.68,22.013,27.216,22.013,37.61c0,10.402-7.335,22.931-22.013,37.61L270.157,165.725L270.157,165.725z"/>
    <path d="M300.728,365.649c-24.487,0-45.542-15.689-62.021-32.324l-42.66-43.043l-43.148,43.153c-16.422,16.423-37.295,32.214-61.612,32.214c-24.115,0-45.035-15.491-61.573-31.566c-7.518-7.309-14.827-15.509-20.636-24.525c2.146,33.786,20.569,65.984,51.925,84.087L241.905,498.09c49.745,28.719,113.942,11.516,142.662-38.229l104.444-180.902c28.72-49.743,11.516-113.94-38.228-142.662l-67.881-39.192c-5.685,9.017-12.825,17.244-20.141,24.63l-43.6,43.99l43.6,43.992c16.496,16.646,32.1,37.595,32.1,62.108c0,24.602-15.641,45.57-32.386,62.086C345.932,350.225,325.016,365.649,300.728,365.649L300.728,365.649z"/>
</svg>