<?xml version="1.0" encoding="utf-8"?>
<!-- Generator: Adobe Illustrator 16.0.0, SVG Export Plug-In . SVG Version: 6.00 Build 0)  -->
<!DOCTYPE svg PUBLIC "-//W3C//DTD SVG 1.1//EN" "http://www.w3.org/Graphics/SVG/1.1/DTD/svg11.dtd">
<svg version="1.1" id="Layer_1" xmlns="http://www.w3.org/2000/svg" xmlns:xlink="http://www.w3.org/1999/xlink" x="0px" y="0px"
	 width="500px" height="500px" viewBox="-690.5 93.5 500 500" enable-background="new -690.5 93.5 500 500" xml:space="preserve">
<g id="Layer_x0020_1">
	<path d="M-440.503,200.635c78.906,0,142.866,63.96,142.866,142.866c0,78.893-63.96,142.85-142.866,142.85
		c-78.893,0-142.854-63.957-142.854-142.85C-583.357,264.595-519.396,200.635-440.503,200.635z M-440.503,93.5l34.375,86.551
		c-11.096-2.323-22.587-3.549-34.366-3.549c-11.784,0-23.283,1.221-34.379,3.549l34.375-86.551H-440.503z M-388.537,184.754
		l73.033-57.759l-13.509,92.179C-346.062,203.879-366.264,192.042-388.537,184.754z M-316.175,232.011l92.179-13.514l-57.764,73.039
		C-289.047,269.267-300.88,249.056-316.175,232.011z M-277.052,309.127l86.552,34.375l-86.552,34.37
		c2.323-11.092,3.548-22.591,3.548-34.374c0-11.78-1.225-23.279-3.548-34.367V309.127z M-281.764,395.462l57.768,73.039
		l-92.187-13.518C-300.888,437.938-289.047,417.736-281.764,395.462z M-329.017,467.821l13.513,92.183l-73.042-57.768
		C-366.273,494.953-346.062,483.116-329.017,467.821z M-406.124,506.94l-34.379,86.56l-34.374-86.56
		c11.096,2.319,22.595,3.552,34.383,3.552C-428.711,510.492-417.216,509.267-406.124,506.94z M-492.455,502.236l-73.046,57.768
		l13.513-92.191C-534.94,483.108-514.729,494.953-492.455,502.236z M-564.814,454.983l-92.191,13.518l57.771-73.047
		C-591.946,417.723-580.114,437.938-564.814,454.983z M-603.937,377.88l-86.563-34.378l86.559-34.375
		c-2.323,11.092-3.548,22.591-3.548,34.371C-607.49,355.285-606.265,366.784-603.937,377.88z M-599.238,291.545l-57.768-73.043
		l92.188,13.518C-580.114,249.068-591.954,269.275-599.238,291.545z M-551.989,219.185L-565.501,127l73.038,57.763
		C-514.738,192.054-534.944,203.883-551.989,219.185z"/>
</g>
</svg>
