<?xml version="1.0" encoding="utf-8"?>
<!-- Generator: Adobe Illustrator 16.0.0, SVG Export Plug-In . SVG Version: 6.00 Build 0)  -->
<!DOCTYPE svg PUBLIC "-//W3C//DTD SVG 1.1//EN" "http://www.w3.org/Graphics/SVG/1.1/DTD/svg11.dtd">
<svg version="1.1" id="Layer_1" focusable="false" xmlns="http://www.w3.org/2000/svg" xmlns:xlink="http://www.w3.org/1999/xlink"
	 x="0px" y="0px" width="500px" height="500px" viewBox="250.03 33.465 500 500" enable-background="new 250.03 33.465 500 500"
	 xml:space="preserve">
<g>
	<path d="M500.03,170.969c77.067,0,147.722,42.967,185.876,112.496c-9.353,17.112-20.908,32.923-34.374,47.03l29.484,23.046
		c16.415-17.561,30.322-37.307,41.327-58.678c3.624-7.169,3.624-15.635,0-22.804C679.938,189.398,596.065,133.47,500.03,133.47
		c-28.671,0-56.021,5.469-81.74,14.695l36.257,28.351C469.344,173.156,484.499,170.969,500.03,170.969z"/>
	<path d="M481.898,197.897l105.301,82.326c-1.734-46.827-39.921-84.255-87.169-84.255
		C493.935,195.979,487.858,196.626,481.898,197.897z"/>
	<path d="M745.351,451.442c-0.005-0.005-0.012-0.01-0.017-0.015L278.162,86.214c-5.389-4.315-13.255-3.444-17.569,1.945
		l-7.813,9.758c-4.319,5.385-3.457,13.251,1.928,17.572c0.005,0.004,0.011,0.009,0.017,0.013l467.172,365.215
		c5.39,4.314,13.256,3.443,17.57-1.946l7.812-9.757C751.599,463.629,750.736,455.762,745.351,451.442z"/>
	<path d="M500.03,395.961c-77.068,0-147.714-42.967-185.877-112.496c9.366-17.111,20.935-32.92,34.414-47.022l-29.483-23.046
		c-16.413,17.558-30.317,37.302-41.319,58.67c-3.624,7.169-3.624,15.634,0,22.803c42.366,82.662,126.238,138.59,222.267,138.59
		c28.671,0,56.021-5.507,81.739-14.694l-36.257-28.343C530.717,393.773,515.569,395.961,500.03,395.961z"/>
	<path d="M518.162,369.04l-105.301-82.325c1.742,46.818,39.928,84.248,87.169,84.248C506.124,370.949,512.2,370.305,518.162,369.04z
		"/>
</g>
</svg>
