<?xml version="1.0" encoding="utf-8"?>
<!-- Generator: Adobe Illustrator 16.0.0, SVG Export Plug-In . SVG Version: 6.00 Build 0)  -->
<!DOCTYPE svg PUBLIC "-//W3C//DTD SVG 1.1//EN" "http://www.w3.org/Graphics/SVG/1.1/DTD/svg11.dtd">
<svg version="1.1" id="Layer_1" focusable="false" xmlns="http://www.w3.org/2000/svg" xmlns:xlink="http://www.w3.org/1999/xlink"
	 x="0px" y="0px" width="500px" height="500px" viewBox="250.03 33.465 500 500" enable-background="new 250.03 33.465 500 500"
	 xml:space="preserve">
<path d="M500.03,195.771c-8.298,0.13-16.536,1.448-24.46,3.915c3.666,6.446,5.618,13.725,5.668,21.141
	c0,24.216-19.631,43.847-43.847,43.847c-7.416-0.051-14.694-2.002-21.14-5.668c-13.384,46.415,13.395,94.893,59.81,108.276
	c46.417,13.384,94.893-13.395,108.276-59.81c13.385-46.417-13.394-94.895-59.809-108.277
	C516.564,196.898,508.317,195.745,500.03,195.771z M722.805,272.034c-42.461-82.848-126.523-138.902-222.775-138.902
	c-96.253,0-180.337,56.093-222.776,138.91c-3.632,7.186-3.632,15.67,0,22.855c42.461,82.848,126.522,138.902,222.776,138.902
	c96.252,0,180.339-56.094,222.775-138.91C726.438,287.703,726.438,279.219,722.805,272.034z M500.03,396.215
	c-77.242,0-148.055-43.064-186.296-112.75c38.241-69.686,109.047-112.75,186.296-112.75c77.25,0,148.056,43.064,186.297,112.75
	C648.094,353.15,577.28,396.215,500.03,396.215z"/>
</svg>
