<?xml version="1.0" encoding="utf-8"?>
<!-- Generator: Adobe Illustrator 16.0.0, SVG Export Plug-In . SVG Version: 6.00 Build 0)  -->
<!DOCTYPE svg PUBLIC "-//W3C//DTD SVG 1.1//EN" "http://www.w3.org/Graphics/SVG/1.1/DTD/svg11.dtd">
<svg version="1.1" id="Layer_1" focusable="false" xmlns="http://www.w3.org/2000/svg" xmlns:xlink="http://www.w3.org/1999/xlink"
	 x="0px" y="0px" width="500px" height="500px" viewBox="-250.47 316.965 500 500" enable-background="new -250.47 316.965 500 500"
	 xml:space="preserve">
<path d="M-78.534,760.656c0.01,6.143,1.826,12.158,5.235,17.275l16.688,25.087c5.791,8.711,15.556,13.946,26.015,13.946h60.263
	c10.459,0,20.226-5.235,26.016-13.946l16.689-25.087c3.406-5.118,5.227-11.127,5.233-17.275l0.039-37.449H-78.583L-78.534,760.656z
	 M-172.342,488.836c0,43.33,16.064,82.86,42.539,113.064c16.133,18.408,41.367,56.863,50.985,89.305
	c0.04,0.254,0.069,0.508,0.107,0.762H77.771c0.039-0.254,0.068-0.498,0.108-0.762c9.618-32.441,34.852-70.896,50.984-89.305
	c26.474-30.204,42.538-69.734,42.538-113.064c0-95.104-77.234-172.163-172.409-171.87
	C-100.624,317.269-172.342,397.988-172.342,488.836z M-0.469,410.713c-43.076,0-78.124,35.049-78.124,78.123
	c0,8.633-6.992,15.625-15.625,15.625c-8.632,0-15.625-6.992-15.625-15.625c0-60.311,49.062-109.372,109.373-109.372
	c8.632,0,15.625,6.992,15.625,15.625C15.156,403.721,8.162,410.713-0.469,410.713z"/>
</svg>
