<?xml version="1.0" encoding="utf-8"?>
<!-- Generator: Adobe Illustrator 16.0.0, SVG Export Plug-In . SVG Version: 6.00 Build 0)  -->
<!DOCTYPE svg PUBLIC "-//W3C//DTD SVG 1.1//EN" "http://www.w3.org/Graphics/SVG/1.1/DTD/svg11.dtd">
<svg version="1.1" id="Layer_1" xmlns="http://www.w3.org/2000/svg" xmlns:xlink="http://www.w3.org/1999/xlink" x="0px" y="0px"
	 width="500px" height="500px" viewBox="0 0 500 500" enable-background="new 0 0 500 500" xml:space="preserve">
<g>
	<path fill-rule="evenodd" clip-rule="evenodd" d="M350.947,153.03c26.851,26.852,41.804,62.974,41.804,100.942
		c0,37.973-14.962,74.091-41.812,100.946c-26.849,26.851-62.975,41.804-100.941,41.804c-37.969,0-74.09-14.953-100.944-41.809
		c-26.852-26.853-41.806-62.974-41.806-100.941c0-37.97,14.956-74.09,41.808-100.942c10.99-10.992,10.99-28.798,0-39.789
		c-10.992-10.992-28.799-10.99-39.789,0.002C71.804,150.705,50.97,200.999,50.97,253.972c0,52.977,20.837,103.271,58.303,140.735
		C146.733,432.168,197.026,453,249.998,453c52.979,0,103.27-20.836,140.734-58.304c37.459-37.458,58.297-87.755,58.297-140.725
		c0-52.974-20.838-103.267-58.297-140.731c-10.989-10.99-28.802-10.99-39.793,0C339.95,124.233,339.95,142.04,350.947,153.03
		L350.947,153.03z M278.139,204.686V61.139c0-15.546-12.597-28.139-28.142-28.139S221.86,45.593,221.86,61.139v143.546
		c0,15.545,12.592,28.14,28.137,28.14S278.139,220.23,278.139,204.686L278.139,204.686z"/>
</g>
</svg>
