<?xml version="1.0" encoding="utf-8"?>
<!-- Generator: Adobe Illustrator 16.0.0, SVG Export Plug-In . SVG Version: 6.00 Build 0)  -->
<!DOCTYPE svg PUBLIC "-//W3C//DTD SVG 1.1//EN" "http://www.w3.org/Graphics/SVG/1.1/DTD/svg11.dtd">
<svg version="1.1" id="Layer_1" xmlns="http://www.w3.org/2000/svg" xmlns:xlink="http://www.w3.org/1999/xlink" x="0px" y="0px"
	 width="500px" height="500px" viewBox="-690.5 93.5 500 500" enable-background="new -690.5 93.5 500 500" xml:space="preserve">
<g id="Layer_x0020_1">
	<path d="M-438.407,540.491c107.641,0,194.896-87.263,194.896-194.903c0-81.226-49.675-150.813-120.296-180.105
		c50.366,71.337,43.636,170.652-20.206,234.503c-63.851,63.843-163.175,70.564-234.504,20.19
		c29.285,70.638,98.844,120.315,180.113,120.315H-438.407z M-615.371,339.256c-1.452,0-2.633-1.18-2.633-2.633
		c0-1.452,1.181-2.633,2.633-2.633c6.527,0,11.833-5.297,11.833-11.824c0-1.452,1.18-2.629,2.624-2.629
		c1.453,0,2.629,1.177,2.629,2.629c0,6.527,5.318,11.824,11.837,11.824c1.444,0,2.628,1.181,2.628,2.633
		c0,1.453-1.184,2.633-2.628,2.633c-6.519,0-11.837,5.307-11.837,11.824c0,1.453-1.176,2.641-2.629,2.641
		c-1.444,0-2.624-1.188-2.624-2.641C-603.538,344.562-608.844,339.256-615.371,339.256z M-593.671,254.406
		c-5.448,0-9.867-4.411-9.867-9.859c0-5.445,4.423-9.859,9.867-9.859c24.487,0,44.364-19.877,44.364-44.372
		c0-5.448,4.41-9.859,9.851-9.859c5.456,0,9.876,4.407,9.876,9.859c0,24.495,19.868,44.372,44.355,44.372
		c5.448,0,9.867,4.41,9.867,9.859c0,5.448-4.423,9.859-9.867,9.859c-24.487,0-44.355,19.877-44.355,44.363
		c0,5.457-4.42,9.867-9.876,9.867c-5.44,0-9.851-4.41-9.851-9.867C-549.307,274.283-569.184,254.406-593.671,254.406z
		 M-474.479,341.551c-2.718,0-4.932-2.205-4.932-4.936c0-2.714,2.214-4.928,4.932-4.928c12.244,0,22.184-9.928,22.184-22.172
		c0-2.727,2.214-4.943,4.924-4.943c2.723,0,4.936,2.217,4.936,4.943c0,12.244,9.94,22.172,22.172,22.172
		c2.73,0,4.944,2.214,4.944,4.928c0,2.727-2.214,4.936-4.944,4.936c-12.231,0-22.172,9.937-22.172,22.181
		c0,2.722-2.213,4.936-4.936,4.936c-2.71,0-4.924-2.214-4.924-4.936C-452.295,351.487-462.235,341.551-474.479,341.551z"/>
</g>
</svg>
