<?xml version="1.0" encoding="utf-8"?>
<!-- Generator: Adobe Illustrator 16.0.0, SVG Export Plug-In . SVG Version: 6.00 Build 0)  -->
<!DOCTYPE svg PUBLIC "-//W3C//DTD SVG 1.1//EN" "http://www.w3.org/Graphics/SVG/1.1/DTD/svg11.dtd">
<svg version="1.1" id="Layer_1" focusable="false" xmlns="http://www.w3.org/2000/svg" xmlns:xlink="http://www.w3.org/1999/xlink"
	 x="0px" y="0px" width="500px" height="500px" viewBox="250.03 33.465 500 500" enable-background="new 250.03 33.465 500 500"
	 xml:space="preserve">
<path d="M312.53,486.59c0,25.889,20.987,46.875,46.875,46.875l0,0h281.25c25.889,0,46.875-20.986,46.875-46.875l0,0V158.465h-375
	V486.59z M578.155,236.59c0-8.629,6.995-15.625,15.625-15.625s15.625,6.996,15.625,15.625v218.751
	c0,8.629-6.995,15.624-15.625,15.624s-15.625-6.995-15.625-15.624V236.59z M484.405,236.59c0-8.629,6.996-15.625,15.625-15.625
	s15.625,6.996,15.625,15.625v218.751c0,8.629-6.996,15.624-15.625,15.624s-15.625-6.995-15.625-15.624V236.59z M390.655,236.59
	c0-8.629,6.996-15.625,15.625-15.625c8.63,0,15.625,6.996,15.625,15.625v218.751c0,8.629-6.996,15.624-15.625,15.624
	c-8.629,0-15.625-6.995-15.625-15.624V236.59z M703.155,64.715H585.968l-9.18-18.262c-3.967-7.963-12.1-12.995-20.996-12.988
	H444.171c-8.88-0.034-16.998,5.011-20.898,12.988l-9.181,18.262H296.905c-8.63,0-15.625,6.996-15.625,15.625v31.25
	c0,8.629,6.996,15.625,15.625,15.625h406.25c8.629,0,15.625-6.996,15.625-15.625V80.34C718.78,71.71,711.784,64.715,703.155,64.715z
	"/>
</svg>
